Coordinates
version=1
nRows=20
nColumns=23
inDegrees=yes

Units are S.I. units (second, meters, Newtons, ...)
If the header above contains a line with 'inDegrees', this indicates whether rotational values are in degrees (yes) or radians (no).

endheader
time	pelvis_tilt	pelvis_list	pelvis_rotation	pelvis_tx	pelvis_ty	pelvis_tz	hip_flexion_r	hip_adduction_r	hip_rotation_r	knee_angle_r	knee_angle_r_beta	ankle_angle_r	subtalar_angle_r	mtp_angle_r	hip_flexion_l	hip_adduction_l	hip_rotation_l	knee_angle_l	knee_angle_l_beta	ankle_angle_l	subtalar_angle_l	mtp_angle_l
      7.50000000	    -15.25244471	     -4.38716379	      2.17822647	      2.34049213	      0.93017655	      0.95959557	     55.37964827	      4.04842871	      2.24763352	     86.39881251	      1.50794375	     -0.58166851	    -10.85866492	      0.00000000	    -10.73120620	     -3.27019420	    -11.35775329	     18.45579772	      0.32211444	     -8.58090053	     -2.46346910	      0.00000000
      7.50666667	    -15.91459125	     -4.56316856	      1.38835388	      2.34295784	      0.93268541	      0.96047186	     56.34891299	      4.56448141	      2.26829484	     82.00402895	      1.43124031	     -0.51259396	    -11.29396037	      0.00000000	    -12.12789292	     -3.33831430	    -12.57446977	     16.95569418	      0.29593269	    -12.87082195	     -2.16850105	      0.00000000
      7.51333333	    -16.41145794	     -4.69810892	      0.66772345	      2.34523301	      0.93528427	      0.96143240	     56.86356635	      5.04262534	      2.27089541	     77.25944392	      1.34843167	     -0.51849098	    -11.88103269	      0.00000000	    -13.55347495	     -3.17089246	    -12.55877767	     15.62862890	      0.27277103	    -17.29149645	     -3.43674942	      0.00000000
      7.52000000	    -16.89378632	     -4.61369769	      0.01913225	      2.34713374	      0.93750296	      0.96236430	     57.17360073	      5.28559903	      2.32816216	     72.33798488	      1.26253601	     -0.42972446	    -12.10707174	      0.00000000	    -14.51048180	     -2.95317334	    -12.92439186	     15.30700175	      0.26715758	    -20.70206668	     -3.64667536	      0.00000000
      7.52666667	    -17.33718018	     -4.41087070	     -0.48470981	      2.34869899	      0.93939303	      0.96308889	     57.23989901	      5.26627131	      2.25701670	     67.21673400	      1.17315332	     -0.28047460	    -11.94317409	      0.00000000	    -15.11126137	     -2.69643394	    -13.07842650	     15.76598010	      0.27516826	    -23.22842954	     -3.45874784	      0.00000000
      7.53333333	    -17.61277342	     -4.21285201	     -0.85743154	      2.34993031	      0.94112886	      0.96378888	     56.90209772	      5.16109103	      2.01830270	     61.83990594	      1.07930997	     -0.32027222	    -11.73743799	      0.00000000	    -15.61378571	     -2.41512872	    -12.50139966	     16.75367354	      0.29240677	    -25.17789235	     -3.60013332	      0.00000000
      7.54000000	    -17.83930888	     -3.95010092	     -1.09619869	      2.35090563	      0.94247875	      0.96423313	     56.31833466	      4.84935147	      1.56315315	     56.32680362	      0.98308818	     -0.45813058	    -11.03844029	      0.00000000	    -15.86538115	     -2.04573499	    -11.37347058	     18.32929686	      0.31990658	    -26.32242225	     -3.52425594	      0.00000000
      7.54666667	    -17.93582897	     -3.71986616	     -1.25375165	      2.35168272	      0.94351694	      0.96459246	     55.40736080	      4.51897010	      0.90162715	     50.69184598	      0.88473962	     -0.77411242	    -10.03866983	      0.00000000	    -16.01918647	     -1.63124875	     -9.71502995	     20.38380885	      0.35576458	    -26.82234996	     -3.46513347	      0.00000000
      7.55333333	    -17.88207612	     -3.51369061	     -1.26731189	      2.35227350	      0.94426657	      0.96472204	     54.18221746	      4.11664423	     -0.02000719	     45.05385403	      0.78633809	     -1.27819300	     -8.73390891	      0.00000000	    -16.09194071	     -1.18203072	     -7.64969361	     22.89976170	      0.39967624	    -26.83103479	     -3.43647784	      0.00000000
      7.56000000	    -17.73748321	     -3.34264150	     -1.22717791	      2.35281233	      0.94460419	      0.96475372	     52.73990393	      3.75523022	     -1.14633071	     39.52661763	      0.68986962	     -1.90906464	     -7.06154788	      0.00000000	    -16.09871040	     -0.67668502	     -5.42486355	     25.73103613	      0.44909130	    -26.51364011	     -3.32977586	      0.00000000
      7.56666667	    -17.42218856	     -3.24874081	     -1.14096396	      2.35339486	      0.94460340	      0.96464774	     51.05580251	      3.49224710	     -2.47512049	     34.29332808	      0.59853149	     -2.56233239	     -5.06453498	      0.00000000	    -16.11730088	     -0.22499633	     -3.40013574	     28.90404132	      0.50447069	    -26.01019658	     -3.03496645	      0.00000000
      7.57333333	    -17.06935714	     -3.15750808	     -1.13170224	      2.35403369	      0.94410544	      0.96463193	     49.32477060	      3.42953676	     -3.68757363	     29.47273622	      0.51439629	     -3.34453963	     -3.04277893	      0.00000000	    -16.06110170	      0.26611770	     -1.71056326	     32.27760058	      0.56335040	    -25.55884385	     -2.60700670	      0.00000000
      7.58000000	    -16.51319976	     -3.23239421	     -1.22740746	      2.35478461	      0.94325420	      0.96479818	     47.43371702	      3.66686919	     -4.95401031	     25.25367594	      0.44075979	     -4.01597072	     -0.94203122	      0.00000000	    -16.04212126	      0.43334895	     -0.99042704	     35.97032643	      0.62780063	    -24.96263570	     -1.27904241	      0.00000000
      7.58666667	    -15.99636396	     -3.30751871	     -1.41006569	      2.35547648	      0.94186947	      0.96516046	     45.69260092	      4.09677618	     -5.86858716	     21.73416413	      0.37933272	     -4.78281879	      0.53831063	      0.00000000	    -15.86691865	      0.59860101	     -0.54046830	     39.78370318	      0.69435661	    -24.86128566	     -0.33525684	      0.00000000
      7.59333333	    -15.39987591	     -3.47461568	     -1.70729539	      2.35612916	      0.94011520	      0.96571470	     44.02033870	      4.72334714	     -6.63335683	     19.05123168	      0.33250672	     -5.47522174	      1.59749550	      0.00000000	    -15.66232796	      0.60373106	     -0.56083822	     43.70202777	      0.76274427	    -25.21553219	      0.40544545	      0.00000000
      7.60000000	    -14.96281194	     -3.61611627	     -2.10016675	      2.35661652	      0.93775862	      0.96643709	     42.72836311	      5.37483443	     -7.29669993	     17.33260203	      0.30251097	     -6.04784846	      2.27629817	      0.00000000	    -15.15931770	      0.60877695	     -0.78276045	     47.72479260	      0.83295477	    -26.11575802	      0.57888361	      0.00000000
      7.60666667	    -14.30139320	     -3.92134142	     -2.66253018	      2.35695054	      0.93528081	      0.96750771	     41.35462195	      6.28545684	     -7.72035891	     16.48290673	      0.28768099	     -6.52328557	      2.20296508	      0.00000000	    -14.78199174	      0.27120838	     -1.67624478	     51.82876137	      0.90458253	    -26.89620444	      1.26738747	      0.00000000
      7.61333333	    -13.81004438	     -4.22939740	     -3.26685230	      2.35707824	      0.93227704	      0.96866065	     40.38652677	      7.13885731	     -8.15735896	     16.66175623	      0.29080251	     -6.66085457	      1.92799571	      0.00000000	    -14.14393977	     -0.03777801	     -2.43707748	     55.92640814	      0.97609996	    -28.17111872	      0.87729386	      0.00000000
      7.62000000	    -13.28733266	     -4.53425538	     -3.92109626	      2.35694784	      0.92903206	      0.96991180	     39.51946421	      7.95743139	     -8.47663566	     17.66045577	      0.30823310	     -6.48621144	      1.18701879	      0.00000000	    -13.44156724	     -0.44201794	     -3.38260264	     60.02201472	      1.04758178	    -29.33567471	      0.26929593	      0.00000000
      7.62666667	    -13.00998088	     -4.78227852	     -4.58490770	      2.35648910	      0.92520683	      0.97119482	     39.05373204	      8.70234213	     -8.47305981	     19.44165231	      0.33932084	     -5.96973561	     -0.05274353	      0.00000000	    -12.34890011	     -0.84732028	     -4.26029147	     64.15836852	      1.11977477	    -30.30700234	     -0.82538609	      0.00000000
